# xmcd CD database file
# Copyright (C) 1997 Ti Kan
# 
# Track frame offsets:
#     150
#     14680
#     27075
#     41245
#     57245
#     62640
#     85715
#     94668
#     104620
#     114493
# 
# Disc length: 1662 seconds
# 
# Revision: 2
# Processed by: cddbd v1.4PL0 Copyright (c) Steve Scherf et al.
# Submitted via: Gronk 1.4
# 
DISCID=7f067c0a
DTITLE=Judy Garland - Judy Garland - Greatest Hits
DYEAR=1900
DGENRE=blues
TTITLE0=Over the Rainbow
TTITLE1=Rock-A-Bye your Baby with a Dixie Melody
TTITLE2=Zing, went the Strings of my Heart
TTITLE3=Come Rain or come Shine
TTITLE4=Limehouse Blues
TTITLE5=I can't give you anything but Love Baby
TTITLE6=Swanee
TTITLE7=After you've gone
TTITLE8=It's a great Day for the Irish
TTITLE9=Some People
EXTD=
EXTT0=
EXTT1=
EXTT2=
EXTT3=
EXTT4=
EXTT5=
EXTT6=
EXTT7=
EXTT8=
EXTT9=
PLAYORDER=
